<svg width="1600" height="980" viewBox="0 0 1600 980" fill="none" xmlns="http://www.w3.org/2000/svg">
  <defs>
    <linearGradient id="bg" x1="120" y1="40" x2="1480" y2="920" gradientUnits="userSpaceOnUse">
      <stop stop-color="#07111E"/>
      <stop offset="0.5" stop-color="#0B192B"/>
      <stop offset="1" stop-color="#08111D"/>
    </linearGradient>
    <linearGradient id="shell" x1="76" y1="76" x2="1524" y2="904" gradientUnits="userSpaceOnUse">
      <stop stop-color="#102338" stop-opacity="0.97"/>
      <stop offset="1" stop-color="#091422" stop-opacity="0.99"/>
    </linearGradient>
    <linearGradient id="panel" x1="0" y1="0" x2="0" y2="600" gradientUnits="userSpaceOnUse">
      <stop stop-color="#122841"/>
      <stop offset="1" stop-color="#0C182A"/>
    </linearGradient>
    <filter id="blur" x="0" y="0" width="1600" height="980" filterUnits="userSpaceOnUse" color-interpolation-filters="sRGB">
      <feGaussianBlur stdDeviation="56"/>
    </filter>
  </defs>

  <rect width="1600" height="980" rx="36" fill="url(#bg)"/>
  <circle cx="1310" cy="164" r="170" fill="#308CFF" fill-opacity="0.12" filter="url(#blur)"/>
  <circle cx="300" cy="840" r="210" fill="#22D1C4" fill-opacity="0.10" filter="url(#blur)"/>
  <circle cx="1180" cy="826" r="160" fill="#F09A5D" fill-opacity="0.08" filter="url(#blur)"/>

  <rect x="76" y="76" width="1448" height="828" rx="30" fill="url(#shell)" stroke="#2E5273" stroke-opacity="0.9"/>
  <rect x="76" y="76" width="1448" height="80" rx="30" fill="#0E2238"/>
  <circle cx="122" cy="116" r="8" fill="#FF6B6B"/>
  <circle cx="150" cy="116" r="8" fill="#F3C15E"/>
  <circle cx="178" cy="116" r="8" fill="#4ACF88"/>
  <text x="214" y="121" fill="#A0B7D2" font-family="Segoe UI, Arial, sans-serif" font-size="19" letter-spacing="3">VISIBLE GOVERNANCE OUTPUT</text>

  <text x="112" y="218" fill="#EEF6FF" font-family="Segoe UI, Arial, sans-serif" font-size="60" font-weight="700">Imperial Stage Board</text>
  <text x="112" y="262" fill="#8EAACA" font-family="Segoe UI, Arial, sans-serif" font-size="24">A clean, high-visibility status board for governed tasks before execution begins.</text>

  <g transform="translate(112 308)">
    <text x="0" y="28" fill="#8FD3FF" font-family="Segoe UI, Arial, sans-serif" font-size="22" font-weight="700">Status legend</text>

    <g transform="translate(0 54)" font-family="Segoe UI, Arial, sans-serif">
      <rect x="0" y="0" width="252" height="78" rx="22" fill="#10253C" stroke="#35577A"/>
      <rect x="24" y="21" width="104" height="36" rx="12" fill="#1E7A50"/>
      <text x="53" y="45" fill="#F7FFFB" font-size="22" font-weight="700">DONE</text>
      <text x="148" y="33" fill="#D9E7F6" font-size="20">Finished</text>
      <text x="148" y="56" fill="#93AFCC" font-size="18">already reported</text>

      <rect x="272" y="0" width="252" height="78" rx="22" fill="#10253C" stroke="#35577A"/>
      <rect x="296" y="21" width="104" height="36" rx="12" fill="#1C63E1"/>
      <text x="317" y="45" fill="#F8FBFF" font-size="22" font-weight="700">ACTIVE</text>
      <text x="420" y="33" fill="#D9E7F6" font-size="20">running now</text>
      <text x="420" y="56" fill="#93AFCC" font-size="18">name the executor</text>

      <rect x="544" y="0" width="252" height="78" rx="22" fill="#10253C" stroke="#35577A"/>
      <rect x="568" y="21" width="122" height="36" rx="12" fill="#687483"/>
      <text x="586" y="45" fill="#F8FBFF" font-size="22" font-weight="700">WAITING</text>
      <text x="710" y="33" fill="#D9E7F6" font-size="20">queued behind</text>
      <text x="710" y="56" fill="#93AFCC" font-size="18">a dependency</text>

      <rect x="816" y="0" width="252" height="78" rx="22" fill="#10253C" stroke="#35577A"/>
      <rect x="840" y="21" width="128" height="36" rx="12" fill="#A85A31"/>
      <text x="858" y="45" fill="#FFF6F0" font-size="22" font-weight="700">BLOCKED</text>
      <text x="988" y="33" fill="#D9E7F6" font-size="20">gate not cleared</text>
      <text x="988" y="56" fill="#93AFCC" font-size="18">say what unlocks it</text>

      <rect x="1088" y="0" width="252" height="78" rx="22" fill="#10253C" stroke="#35577A"/>
      <rect x="1112" y="21" width="124" height="36" rx="12" fill="#415063"/>
      <text x="1134" y="45" fill="#EFF5FC" font-size="22" font-weight="700">SKIPPED</text>
      <text x="1258" y="33" fill="#D9E7F6" font-size="20">not used in</text>
      <text x="1258" y="56" fill="#93AFCC" font-size="18">this petition</text>
    </g>
  </g>

  <g transform="translate(112 436)">
    <rect x="0" y="0" width="1376" height="314" rx="30" fill="url(#panel)" stroke="#35577A"/>
    <text x="32" y="50" fill="#EEF6FF" font-family="Segoe UI, Arial, sans-serif" font-size="34" font-weight="700">Live Example</text>
    <text x="32" y="84" fill="#90ADCB" font-family="Segoe UI, Arial, sans-serif" font-size="20">Typical task: intake is active, review has not completed, delivery is still legally blocked.</text>

    <rect x="1208" y="24" width="70" height="34" rx="12" fill="#123152" stroke="#35577A"/>
    <text x="1224" y="47" fill="#EEF6FF" font-family="Segoe UI, Arial, sans-serif" font-size="20" font-weight="700">Mode</text>
    <rect x="1290" y="24" width="62" height="34" rx="12" fill="#1E3956" stroke="#4A7597"/>
    <text x="1304" y="47" fill="#8FD3FF" font-family="Segoe UI, Arial, sans-serif" font-size="20" font-weight="700">Strict</text>

    <g transform="translate(32 116)" font-family="Segoe UI, Arial, sans-serif">
      <rect x="0" y="0" width="1312" height="48" rx="15" fill="#0F2237"/>
      <text x="24" y="31" fill="#87A4C2" font-size="18" letter-spacing="1.2">STAGE</text>
      <text x="476" y="31" fill="#87A4C2" font-size="18" letter-spacing="1.2">OFFICE</text>
      <text x="710" y="31" fill="#87A4C2" font-size="18" letter-spacing="1.2">STATUS</text>
      <text x="908" y="31" fill="#87A4C2" font-size="18" letter-spacing="1.2">NOTE</text>

      <g transform="translate(0 62)">
        <rect x="0" y="0" width="1312" height="50" rx="16" fill="#0D1C2F"/>
        <text x="24" y="32" fill="#EEF6FF" font-size="21" font-weight="700">01 Emperor Decree</text>
        <text x="476" y="32" fill="#D9E7F6" font-size="21">User</text>
        <rect x="686" y="7" width="92" height="36" rx="12" fill="#1E7A50"/>
        <text x="712" y="31" fill="#F7FFFB" font-size="20" font-weight="700">DONE</text>
        <text x="908" y="32" fill="#D9E7F6" font-size="21">Petition received.</text>
      </g>

      <g transform="translate(0 122)">
        <rect x="0" y="0" width="1312" height="50" rx="16" fill="#10233A"/>
        <text x="24" y="32" fill="#EEF6FF" font-size="21" font-weight="700">02 Crown Prince Intake</text>
        <text x="476" y="32" fill="#D9E7F6" font-size="21">Shangshu</text>
        <rect x="678" y="7" width="100" height="36" rx="12" fill="#1C63E1"/>
        <text x="701" y="31" fill="#F8FBFF" font-size="20" font-weight="700">ACTIVE</text>
        <text x="908" y="32" fill="#D9E7F6" font-size="21">Classifying risk, mode, and scope.</text>
      </g>

      <g transform="translate(0 182)">
        <rect x="0" y="0" width="1312" height="50" rx="16" fill="#0D1C2F"/>
        <text x="24" y="32" fill="#EEF6FF" font-size="21" font-weight="700">03 Jinyiwei Recon</text>
        <text x="476" y="32" fill="#D9E7F6" font-size="21">Recon</text>
        <rect x="670" y="7" width="108" height="36" rx="12" fill="#687483"/>
        <text x="689" y="31" fill="#F8FBFF" font-size="20" font-weight="700">WAITING</text>
        <text x="908" y="32" fill="#D9E7F6" font-size="21">Waiting for intake decision.</text>
      </g>

      <g transform="translate(0 242)">
        <rect x="0" y="0" width="1312" height="50" rx="16" fill="#10233A"/>
        <text x="24" y="32" fill="#EEF6FF" font-size="21" font-weight="700">04 Zhongshu Draft</text>
        <text x="476" y="32" fill="#D9E7F6" font-size="21">Zhongshu</text>
        <rect x="670" y="7" width="108" height="36" rx="12" fill="#687483"/>
        <text x="689" y="31" fill="#F8FBFF" font-size="20" font-weight="700">WAITING</text>
        <text x="908" y="32" fill="#D9E7F6" font-size="21">Waiting for dossier and findings.</text>
      </g>
    </g>
  </g>

  <g transform="translate(112 780)">
    <rect x="0" y="0" width="1376" height="88" rx="28" fill="url(#panel)" stroke="#35577A"/>
    <text x="32" y="55" fill="#8FD3FF" font-family="Segoe UI, Arial, sans-serif" font-size="30" font-weight="700">Ministries</text>

    <g transform="translate(220 26)" font-family="Segoe UI, Arial, sans-serif">
      <rect x="0" y="0" width="102" height="36" rx="12" fill="#415063"/>
      <text x="26" y="24" fill="#EFF5FC" font-size="20" font-weight="700">SKIPPED</text>
      <text x="116" y="24" fill="#D9E7F6" font-size="19">Personnel</text>

      <rect x="250" y="0" width="108" height="36" rx="12" fill="#687483"/>
      <text x="269" y="24" fill="#F8FBFF" font-size="20" font-weight="700">WAITING</text>
      <text x="372" y="24" fill="#D9E7F6" font-size="19">Revenue</text>

      <rect x="500" y="0" width="108" height="36" rx="12" fill="#687483"/>
      <text x="519" y="24" fill="#F8FBFF" font-size="20" font-weight="700">WAITING</text>
      <text x="622" y="24" fill="#D9E7F6" font-size="19">Rites</text>

      <rect x="714" y="0" width="112" height="36" rx="12" fill="#A85A31"/>
      <text x="734" y="24" fill="#FFF6F0" font-size="20" font-weight="700">BLOCKED</text>
      <text x="840" y="24" fill="#D9E7F6" font-size="19">Works</text>
    </g>
  </g>
</svg>
